<?xml version="1.0" encoding="UTF-8" standalone="no"?>
<svg
   viewBox="0 0 200 200"
   version="1.1"
   id="svg6"
   sodipodi:docname="UE Mod Manager Icon.svg"
   inkscape:version="1.4.3 (0d15f75, 2025-12-25)"
   xml:space="preserve"
   width="200"
   height="200"
   xmlns:inkscape="http://www.inkscape.org/namespaces/inkscape"
   xmlns:sodipodi="http://sodipodi.sourceforge.net/DTD/sodipodi-0.dtd"
   xmlns="http://www.w3.org/2000/svg"
   xmlns:svg="http://www.w3.org/2000/svg"><sodipodi:namedview
     id="namedview6"
     pagecolor="#505050"
     bordercolor="#ffffff"
     borderopacity="1"
     inkscape:showpageshadow="0"
     inkscape:pageopacity="0"
     inkscape:pagecheckerboard="1"
     inkscape:deskcolor="#505050"
     inkscape:zoom="2.8284271"
     inkscape:cx="36.769552"
     inkscape:cy="99.171726"
     inkscape:window-width="2560"
     inkscape:window-height="1369"
     inkscape:window-x="2552"
     inkscape:window-y="-8"
     inkscape:window-maximized="1"
     inkscape:current-layer="svg6"
     showgrid="true"><inkscape:grid
       id="grid7"
       units="px"
       originx="0"
       originy="0"
       spacingx="1"
       spacingy="1"
       empcolor="#0099e5"
       empopacity="0.30196078"
       color="#0099e5"
       opacity="0.14901961"
       empspacing="5"
       enabled="true"
       visible="true" /></sodipodi:namedview><rect
     x="4.5442657"
     y="4.549376"
     width="190.90909"
     height="190.90909"
     rx="45.454548"
     fill="#3b1c75"
     stroke="#a855f7"
     stroke-width="9.09091"
     id="rect2" /><rect
     x="39.416466"
     y="56.112206"
     width="119.68009"
     height="16.69483"
     rx="7.4800057"
     fill="#261049"
     id="rect4"
     style="fill:#340e6d;fill-opacity:1;stroke-width:0.35;stroke-dasharray:none" /><defs
     id="defs6"><rect
       x="44.361835"
       y="70.631973"
       width="19.083023"
       height="16.109047"
       id="rect3" /><inkscape:path-effect
       effect="powerclip"
       message=""
       id="path-effect7"
       is_visible="true"
       lpeversion="1"
       inverse="true"
       flatten="false"
       hide_clip="false" /><radialGradient
       id="innerGlow"
       cx="100"
       cy="82"
       r="78"
       fx="100"
       fy="82"
       gradientUnits="userSpaceOnUse"
       gradientTransform="matrix(1.1111112,0,0,1.1111112,-11.111111,-11.111111)"><stop
         offset="0%"
         stop-color="#a855f7"
         stop-opacity="0.38"
         id="stop5" /><stop
         offset="100%"
         stop-color="#a855f7"
         stop-opacity="0"
         id="stop6" /></radialGradient><clipPath
       clipPathUnits="userSpaceOnUse"
       id="clipPath7"><rect
         style="display:block;fill:#000000"
         id="rect7"
         width="14.25031"
         height="18.463446"
         x="107.37299"
         y="99.19455"
         rx="20" /></clipPath></defs><text
     xml:space="preserve"
     style="writing-mode:lr-tb;direction:ltr;fill:#f9f5ff;fill-opacity:1"
     x="96.654274"
     y="110.53284"
     id="text1"><tspan
       sodipodi:role="line"
       id="tspan1"
       x="96.654274"
       y="110.53284" /></text><text
     xml:space="preserve"
     style="font-style:normal;font-variant:normal;font-weight:normal;font-stretch:normal;font-size:12px;font-family:'MS Gothic';-inkscape-font-specification:'MS Gothic, Normal';font-variant-ligatures:normal;font-variant-caps:normal;font-variant-numeric:normal;font-variant-east-asian:normal;writing-mode:lr-tb;direction:ltr;fill:#000000"
     x="64.684013"
     y="70.879799"
     id="text2"><tspan
       sodipodi:role="line"
       id="tspan4"
       x="64.684013"
       y="70.879799"></tspan></text><text
     xml:space="preserve"
     id="text3"
     style="writing-mode:lr-tb;direction:ltr;white-space:pre;shape-inside:url(#rect3);display:inline;fill:#000000" /><text
     xml:space="preserve"
     style="font-style:normal;font-variant:normal;font-weight:normal;font-stretch:normal;font-size:84.4982px;font-family:Sans;-inkscape-font-specification:'Sans, Normal';font-variant-ligatures:normal;font-variant-caps:normal;font-variant-numeric:normal;font-variant-east-asian:normal;writing-mode:lr-tb;direction:ltr;fill:#000000;stroke-width:7.04152"
     x="234.87148"
     y="151.28046"
     id="text5"
     transform="scale(1.036481,0.96480303)"><tspan
       sodipodi:role="line"
       id="tspan5"
       x="234.87148"
       y="151.28046"
       style="stroke-width:7.04152" /></text><text
     xml:space="preserve"
     style="font-style:normal;font-variant:normal;font-weight:normal;font-stretch:normal;font-size:12px;font-family:Sans;-inkscape-font-specification:'Sans, Normal';font-variant-ligatures:normal;font-variant-caps:normal;font-variant-numeric:normal;font-variant-east-asian:normal;writing-mode:lr-tb;direction:ltr;fill:#f9f5ff;fill-opacity:1"
     x="95.910782"
     y="133.58116"
     id="text7"><tspan
       sodipodi:role="line"
       id="tspan7"
       x="95.910782"
       y="133.58116"></tspan></text><g
     style="fill:none;stroke:currentColor;stroke-width:2;stroke-linecap:round;stroke-linejoin:round"
     id="g7"
     transform="matrix(6.3444078,0,0,6.2399893,23.791513,25.395213)"
     inkscape:label="Outline 1"><rect
       x="2"
       y="4"
       width="20"
       height="16"
       rx="2"
       id="rect1" /><path
       d="M 10,4 V 8"
       id="path1" /><path
       d="M 2,8 H 22"
       id="path2" /><path
       d="M 6,4 V 8"
       id="path3" /></g><g
     style="fill:none;stroke:currentColor;stroke-width:2;stroke-linecap:round;stroke-linejoin:round"
     id="g8"
     transform="matrix(1.6410909,0,0,1.6410909,80.050619,87.366388)"
     inkscape:label="Chain"><path
       d="m 10,13 a 5,5 0 0 0 7.54,0.54 l 3,-3 A 5,5 0 0 0 13.47,3.47 l -1.72,1.71"
       id="path1-8" /><path
       d="M 14,11 A 5,5 0 0 0 6.46,10.46 l -3,3 a 5,5 0 0 0 7.07,7.07 l 1.71,-1.71"
       id="path2-2" /></g><path
     style="fill:#f9f5ff;fill-opacity:1;stroke-width:0.2539"
     d="m 102.93583,114.54783 c -1.61164,-0.50021 -3.162675,-1.48751 -4.35507,-2.7722 -1.184145,-1.2758 -1.319388,-1.92473 -0.558596,-2.68029 0.787802,-0.78238 1.466999,-0.61281 2.954986,0.73777 1.70583,1.5483 3.39704,2.16324 5.44271,1.97903 2.19754,-0.1979 3.4115,-0.97104 6.81546,-4.34059 3.81491,-3.77637 4.53888,-5.05924 4.34769,-7.70405 -0.28967,-4.007349 -3.28419,-6.58854 -7.31158,-6.302365 -2.21031,0.157058 -3.33738,0.787411 -5.74558,3.213425 -1.90193,1.91599 -2.71825,2.2225 -3.53425,1.32704 -0.85565,-0.93898 -0.54372,-1.60431 1.83677,-3.917706 2.46256,-2.393155 4.09123,-3.321951 6.51093,-3.713057 4.20087,-0.679002 8.65727,1.755 10.54793,5.761073 0.60522,1.28239 0.68263,1.74874 0.6812,4.10357 -0.002,3.69435 -0.50453,4.66499 -4.5507,8.79419 -3.5734,3.64673 -4.92491,4.696 -6.93214,5.38183 -1.70104,0.58121 -4.50882,0.64163 -6.14976,0.13233 z"
     id="path8"
     inkscape:label="Chain" /><path
     style="fill:#f9f5ff;fill-opacity:1;stroke-width:0.2539"
     d="m 91.216022,126.20147 c -5.756185,-1.86435 -8.596748,-8.25891 -6.087086,-13.70299 0.907778,-1.96921 7.144009,-8.30015 9.30024,-9.4415 3.872578,-2.04985 8.461744,-1.39717 11.561204,1.64427 1.5109,1.48261 1.7272,2.17984 0.93578,3.01647 -0.82908,0.87643 -1.36737,0.77636 -2.75428,-0.512 -1.67588,-1.5568 -3.08739,-2.14766 -5.130602,-2.14766 -2.488558,0 -3.453845,0.56057 -7.079515,4.11123 -4.102981,4.0181 -4.512904,4.70087 -4.512904,7.5168 0,1.89041 0.08477,2.29391 0.700389,3.33394 1.410971,2.38371 3.98989,3.70145 6.700267,3.42365 1.828989,-0.18747 3.023191,-0.87061 4.956098,-2.83513 2.067707,-2.10152 2.790067,-2.51441 3.688047,-2.10807 0.71129,0.32184 1.03932,1.14003 0.78108,1.94811 -0.0895,0.28033 -1.10314,1.38898 -2.25231,2.46365 -2.801367,2.61973 -4.594532,3.46485 -7.562756,3.56428 -1.345631,0.0451 -2.577896,-0.0594 -3.243652,-0.27505 z"
     id="path9"
     inkscape:label="chain" /><path
     style="fill:#170039;fill-opacity:1;stroke-width:300;stroke-dasharray:none"
     d="m 45.229244,155.884 c -6.1325,-1.3148 -11.323779,-5.6609 -13.638885,-11.41838 -1.424744,-3.54322 -1.375481,-1.83435 -1.298715,-45.0505 0.07948,-44.747166 -0.11879,-40.51961 2.109655,-44.981415 1.914641,-3.833502 5.561636,-7.157817 9.660959,-8.806171 3.586662,-1.442211 0.512917,-1.374286 58.805152,-1.299512 l 53.40768,0.06851 1.73482,0.586245 c 6.37588,2.15459 10.66665,6.327218 12.73425,12.383606 l 0.64865,1.900038 v 41.016109 41.01611 l -0.68001,1.98265 c -2.30461,6.71937 -6.30378,10.09407 -12.45506,12.2064 l -1.98265,0.68084 -53.65551,0.0437 C 53.736062,156.25042 46.745108,156.209 45.229244,155.884 Z M 153.17788,143.62208 c 1.25898,-0.5726 2.64753,-1.86088 3.28034,-3.04347 l 0.54302,-1.01479 0.066,-29.05824 0.066,-29.058244 H 99.8751 42.617028 l 0.06695,28.934324 c 0.07302,31.55743 -0.01993,29.51335 1.425636,31.35086 0.630922,0.80199 2.442819,1.91262 3.556304,2.17989 0.431824,0.10365 24.149447,0.17134 52.705832,0.15041 47.34618,-0.0347 51.9987,-0.0735 52.80613,-0.44074 z M 55.51425,62.834505 v -6.469088 l -4.027261,0.09629 c -4.340504,0.103781 -5.010715,0.280767 -6.816211,1.799992 -1.482918,1.247793 -1.879356,2.567948 -1.994468,6.641667 -0.05679,2.009863 -0.03886,3.822131 0.03986,4.027262 0.122254,0.318589 1.065619,0.372964 6.470601,0.372964 h 6.32748 z m 25.468868,-0.03649 0.06614,-6.38166 h -6.447802 -6.447801 v 6.447802 6.447801 l 6.38166,-0.06614 6.38166,-0.06614 z m 76.018122,2.292442 c 0,-3.720722 -0.0483,-4.178553 -0.5359,-5.080546 -0.69319,-1.282273 -1.93474,-2.462087 -3.18157,-3.023375 -0.93403,-0.420472 -2.6923,-0.45013 -30.42132,-0.513137 l -29.429984,-0.06687 v 6.283311 c 0,3.455822 0.07477,6.358083 0.166159,6.449471 0.09139,0.09139 14.394365,0.137856 31.784385,0.103264 l 31.61823,-0.0629 z"
     id="path10"
     sodipodi:nodetypes="sssssscsscccsscsssscccccsssssccssssscccccccccccsssscssscs"
     inkscape:label="Outline 2" /><path
     style="fill:#170039;fill-opacity:1;stroke-width:0.247831"
     d="m 84.651028,121.83595 c -2.751815,-2.94191 -3.44444,-7.1443 -1.777583,-10.78519 0.883026,-1.92879 6.949216,-8.1298 9.046654,-9.24772 2.551498,-1.35993 5.732403,-1.53008 8.231261,-0.44028 l 0.83997,0.36632 -1.646761,0.0202 c -2.008407,0.0247 -4.499738,0.76042 -5.82466,1.72019 -1.539122,1.11493 -5.34867,4.82668 -6.899965,6.72282 -2.894887,3.53842 -3.309071,7.19913 -1.269223,11.21785 0.467017,0.92008 0.763098,1.67286 0.657959,1.67286 -0.105139,0 -0.716083,-0.56118 -1.357652,-1.24707 z"
     id="path11"
     inkscape:label="chain" /><path
     style="fill:#170039;fill-opacity:1;stroke-width:0.247831"
     d="m 103.22181,111.10149 -1.23916,-0.5749 1.50493,-0.13791 c 2.2401,-0.20528 3.38246,-0.9291 6.72588,-4.26168 3.71137,-3.69934 4.41493,-4.95493 4.2294,-7.5479 -0.12622,-1.76412 -0.60975,-2.967884 -1.63028,-4.058654 -0.52832,-0.564674 -0.56427,-0.681536 -0.20967,-0.681536 1.57233,0 3.90175,2.2512 4.51609,4.36444 0.49622,1.70694 0.35473,3.06958 -0.50811,4.89347 -0.87858,1.85717 -5.91266,6.85379 -7.91149,7.85262 -1.87561,0.93725 -3.67736,0.98727 -5.47759,0.15205 z"
     id="path12"
     inkscape:label="chain" /><path
     style="fill:#170039;fill-opacity:1;stroke-width:0.247831"
     d="m 98.314474,96.86736 c -0.843913,-0.932516 -0.546816,-1.576517 1.775806,-3.849322 3.20309,-3.134397 5.83526,-4.163335 9.24547,-3.614137 2.3027,0.370839 2.47836,0.618786 0.56495,0.797462 -2.51343,0.234708 -4.38074,1.221879 -6.91688,3.65667 -1.16983,1.123081 -2.26477,2.331007 -2.4332,2.684287 -0.3932,0.82472 -1.622258,1.00338 -2.236146,0.32504 z"
     id="path13"
     inkscape:label="chain" /><path
     style="fill:#170039;fill-opacity:1;stroke-width:0.247831"
     d="m 92.148169,122.99842 c -0.501903,-0.1876 -1.245662,-0.552 -1.652797,-0.80978 l -0.740246,-0.46869 1.900628,-0.006 c 2.377178,-0.007 3.28053,-0.45438 5.494184,-2.71983 1.984914,-2.03135 2.758223,-2.48599 3.533832,-2.07756 1.41295,0.74403 1.23342,1.47537 -0.836126,3.40603 -0.969793,0.90471 -2.199534,1.90894 -2.732756,2.23162 -1.2018,0.72727 -3.628414,0.94417 -4.966719,0.44395 z"
     id="path14"
     inkscape:label="chain" /><path
     style="fill:#471297;fill-opacity:1;stroke-width:0.247831"
     d="m 47.133238,143.42954 c -1.488123,-0.51396 -2.807303,-1.65852 -3.598574,-3.12223 l -0.535903,-0.99132 -0.07166,-28.81041 -0.07166,-28.810413 h 57.014966 57.014963 l -0.066,28.953843 -0.066,28.95384 -0.7524,1.21964 c -0.49498,0.80238 -1.19004,1.48212 -2.03162,1.98686 -1.1146,0.66848 -1.59188,0.78793 -3.70857,0.92809 -1.33614,0.0885 -24.78994,0.1578 -52.119558,0.15405 -47.562116,-0.007 -49.746649,-0.0263 -51.008026,-0.46195 z m 50.033677,-17.27657 c 0.740351,-0.21983 1.903717,-0.77173 2.585254,-1.22644 1.476261,-0.98493 4.474101,-3.99289 4.677781,-4.69357 0.33468,-1.15132 -1.07393,-2.34483 -2.13751,-1.81111 -0.35253,0.17691 -0.4337,0.10725 -0.4337,-0.37224 0,-0.78369 -0.82266,-1.49281 -1.73183,-1.49281 -0.58463,0 -1.17918,0.42906 -2.920095,2.1073 -2.854897,2.75213 -4.649335,3.40886 -7.301628,2.67226 -0.720121,-0.19999 -1.07679,-0.51537 -1.61001,-1.42364 -0.597405,-1.01761 -0.683643,-1.42018 -0.674657,-3.1494 0.01419,-2.73004 0.494605,-3.55418 4.205443,-7.21426 3.598421,-3.5492 4.870882,-4.3099 7.209341,-4.3099 1.391986,0 1.597876,0.0685 2.139366,0.71205 0.75157,0.89319 1.58957,1.35085 2.18728,1.19455 0.25367,-0.0663 0.5966,0.0425 0.76206,0.24189 0.49803,0.60008 1.6928,1.10901 2.21468,0.94337 0.26943,-0.0855 0.66745,-0.42649 0.88449,-0.75772 0.33203,-0.50674 0.34544,-0.72094 0.0846,-1.35076 -0.49824,-1.20286 -2.51399,-2.80605 -5.25415,-4.1788 -3.049471,-1.5277 -4.915652,-1.91565 -7.212138,-1.49928 -2.68627,0.48704 -3.958067,1.28508 -7.406989,4.64782 -4.865021,4.74344 -5.791613,6.48809 -5.599658,10.54341 0.09209,1.94549 0.221031,2.48922 0.909703,3.83611 0.89201,1.74457 2.364573,3.34758 3.919973,4.26724 0.564691,0.33388 1.548332,0.9305 2.185868,1.32582 0.637537,0.39532 1.56687,0.8644 2.065185,1.04241 1.274089,0.45511 4.634057,0.42593 6.251381,-0.0543 z m 13.136445,-12.16838 c 3.23813,-1.59587 9.26993,-7.99138 10.04213,-10.64768 0.63384,-2.18033 0.39835,-5.75585 -0.49306,-7.4863 -1.39249,-2.703185 -3.00361,-3.958667 -7.48935,-5.836132 -4.60075,-1.925606 -8.58345,-1.017158 -12.587112,2.871099 -1.923946,1.868489 -2.130367,2.158438 -2.130367,2.992422 0,1.088381 0.786193,1.763251 1.916047,1.644741 0.466692,-0.049 0.887262,0.11081 1.252082,0.47563 1.05407,1.05407 1.74802,0.75327 4.76968,-2.067453 1.75154,-1.635066 2.69902,-2.114731 4.49976,-2.278016 l 1.45261,-0.131718 0.9758,1.056985 c 1.74695,1.892282 2.23051,5.022332 1.11436,7.213122 -0.58621,1.15062 -6.18187,6.80701 -7.51066,7.59217 -0.76276,0.45071 -1.54885,0.66672 -2.72614,0.74914 -1.5623,0.10936 -1.7083,0.0727 -2.62481,-0.6596 -0.53377,-0.42647 -1.258679,-0.84739 -1.610907,-0.93537 -0.352226,-0.088 -0.942974,-0.48318 -1.312774,-0.8782 -0.860788,-0.91951 -2.017405,-0.87801 -2.7431,0.0984 -1.081983,1.45582 0.567467,3.41496 4.568042,5.4257 3.393329,1.70554 3.400179,1.7073 6.413259,1.64824 2.38275,-0.0467 2.7494,-0.12022 4.22451,-0.84721 z"
     id="path15"
     inkscape:label="sceen" /><path
     style="fill:#471297;fill-opacity:1;stroke-width:0.247831"
     d="m 68.401487,62.859975 v -6.195787 h 6.195787 6.195787 v 6.195787 6.195787 h -6.195787 -6.195787 z"
     id="path16"
     inkscape:label="tab" /><path
     style="fill:#340e6d;fill-opacity:1;stroke-width:0.247831"
     d="m 42.91966,65.152416 c 0.105916,-4.273177 0.266242,-4.855611 1.779709,-6.465335 1.567538,-1.667235 2.309622,-1.883642 6.78762,-1.97941 l 4.027261,-0.08613 v 6.21711 6.21711 h -6.34567 -6.34567 z"
     id="path17"
     inkscape:label="tab 1" /><path
     style="fill:#340e6d;fill-opacity:1;stroke-width:0.247831"
     d="m 68.401487,62.859975 v -6.195787 h 6.195787 6.195787 v 6.195787 6.195787 h -6.195787 -6.195787 z"
     id="path18"
     inkscape:label="tab 2" /><g
     style="fill:none;stroke:currentColor;stroke-width:2.05738;stroke-linecap:round;stroke-linejoin:round;stroke-dasharray:none"
     id="g19"
     transform="matrix(0.46175267,0,0,0.46175267,142.70459,57.684933)"
     inkscape:label="Cross Black Layer"><path
       d="M 18,6 6,18"
       id="path1-1"
       style="stroke-width:2.05738;stroke-dasharray:none" /><path
       d="M 6,6 18,18"
       id="path2-5"
       style="stroke-width:2.05738;stroke-dasharray:none" /></g><g
     style="fill:none;stroke:currentColor;stroke-width:1.5278;stroke-linecap:round;stroke-linejoin:round;stroke-dasharray:none"
     id="g20"
     transform="matrix(0.38664839,0,0,1,123.40009,51.519809)"
     inkscape:label="minus black layer"><path
       d="M 5,12 H 19"
       id="path1-2"
       style="stroke-width:1.5278;stroke-dasharray:none" /></g><g
     style="fill:none;stroke:currentColor;stroke-width:2.92026;stroke-linecap:round;stroke-linejoin:round;stroke-dasharray:none"
     id="g21"
     transform="matrix(0.32531323,0,0,0.32531323,134.47846,59.239901)"
     inkscape:label="Square black layer"><rect
       width="18"
       height="18"
       x="3"
       y="3"
       rx="2"
       id="rect1-7"
       style="stroke-width:2.92026;stroke-dasharray:none" /></g><path
     style="fill:#261049;fill-opacity:1;stroke-width:0.0350487;stroke-dasharray:none"
     d="m 169.70109,113.15468 c 0,-13.57807 0.005,-19.132736 0.0111,-12.3437 0.006,6.78904 0.006,17.89837 0,24.6874 -0.006,6.78904 -0.0111,1.23437 -0.0111,-12.3437 z"
     id="path22"
     inkscape:label="idk what this is" /><path
     style="fill:#170039;fill-opacity:1;stroke-width:0.0153338;stroke-dasharray:none"
     d="m 145.32052,66.421396 c -0.22555,-0.08245 -0.36288,-0.390737 -0.26226,-0.58875 0.0288,-0.05675 0.61223,-0.66519 1.29644,-1.352082 l 1.244,-1.248895 -1.2296,-1.226417 c -0.67629,-0.67453 -1.25788,-1.279654 -1.29243,-1.344722 -0.10241,-0.192849 -0.0778,-0.335484 0.0861,-0.499428 0.16964,-0.169644 0.37108,-0.19779 0.55322,-0.0773 0.0596,0.03941 0.65526,0.615782 1.32373,1.280824 l 1.2154,1.209167 1.28353,-1.280824 c 1.28255,-1.279852 1.28367,-1.280824 1.47138,-1.280824 0.2651,0 0.44398,0.178875 0.44398,0.443977 0,0.187706 -9.9e-4,0.188841 -1.28014,1.470694 l -1.28014,1.282843 1.28014,1.284925 1.28014,1.284925 v 0.198584 c 0,0.319234 -0.25693,0.528151 -0.55859,0.454213 -0.0785,-0.01924 -0.56315,-0.470975 -1.39083,-1.296378 l -1.27035,-1.26685 -1.29427,1.291629 c -1.12982,1.127515 -1.31076,1.291191 -1.42402,1.288171 -0.0714,-0.0019 -0.15932,-0.01427 -0.19546,-0.02748 z"
     id="path25"
     inkscape:label="cross" /><path
     style="fill:#170039;fill-opacity:1;stroke-width:0.0153338;stroke-dasharray:none"
     d="m 135.87193,66.497931 c -0.41793,-0.09954 -0.75513,-0.457572 -0.84679,-0.899103 -0.0318,-0.153168 -0.0434,-1.012592 -0.0348,-2.590322 l 0.0128,-2.361104 0.10175,-0.224856 c 0.11835,-0.261525 0.25884,-0.406057 0.53351,-0.548861 l 0.19715,-0.102499 2.44828,-0.01237 c 2.8257,-0.01427 2.79136,-0.01793 3.14329,0.334287 0.34789,0.348172 0.34479,0.320803 0.34479,3.051514 0,2.743985 0.004,2.707923 -0.35201,3.05329 -0.35785,0.346993 -0.31933,0.342716 -3.04033,0.337565 -1.30283,-0.0025 -2.43124,-0.01936 -2.50757,-0.03754 z m 4.92731,-0.930573 c 0.0759,-0.07585 0.0759,-4.769631 0,-4.845477 -0.0396,-0.03959 -0.63407,-0.05257 -2.40646,-0.05257 -2.08149,0 -2.36186,0.008 -2.42274,0.06884 -0.0609,0.06087 -0.0688,0.339771 -0.0688,2.406466 0,2.066696 0.008,2.3456 0.0688,2.406467 0.0609,0.06088 0.34125,0.06885 2.42274,0.06885 1.77239,0 2.36688,-0.01299 2.40646,-0.05257 z"
     id="path26"
     inkscape:label="square" /><path
     style="fill:#170039;fill-opacity:1;stroke-width:0.0153338;stroke-dasharray:none"
     d="m 125.1665,64.075924 c -0.15734,-0.346651 -0.0936,-1.144759 0.10131,-1.268632 0.0292,-0.01855 1.29128,-0.03402 2.80466,-0.03439 l 2.75159,-6.71e-4 0.0931,0.208102 c 0.12492,0.279322 0.12858,0.840349 0.007,1.089172 l -0.0832,0.170389 -2.79494,0.01128 -2.79493,0.01128 z"
     id="path27" /><path
     style="fill:#340e6d;fill-opacity:1;stroke-width:0.061;stroke-dasharray:none"
     d="m 93.579931,62.790171 v -6.137478 l 29.309449,0.04777 29.30944,0.04777 0.99453,0.466219 c 1.27027,0.595479 2.40042,1.63896 3.03211,2.799591 0.43772,0.804243 0.51386,1.177033 0.63663,3.117299 0.0767,1.212097 0.14316,3.012124 0.14769,4.000058 l 0.008,1.796244 H 125.29897 93.579931 Z m 47.831649,3.518603 c 0.47789,-0.477891 0.58114,-1.244503 0.50991,-3.786145 -0.0829,-2.958382 0.007,-2.882876 -3.42258,-2.882876 -2.44345,0 -3.1066,0.115272 -3.42744,0.595775 -0.0708,0.106051 -0.12996,1.431785 -0.13143,2.946076 -0.004,3.647359 -0.18199,3.467882 3.4476,3.467882 2.42391,0 2.71616,-0.03293 3.02394,-0.340712 z m 5.53023,-1.061525 1.21759,-1.226992 1.2507,1.242355 c 0.9637,0.957266 1.34633,1.228777 1.66743,1.183182 0.7787,-0.110571 0.58685,-0.628498 -0.7395,-1.996373 l -1.27489,-1.314796 1.28568,-1.294313 c 0.87986,-0.885773 1.25201,-1.382024 1.17904,-1.572193 -0.2212,-0.576425 -0.88583,-0.289396 -2.08472,0.900313 l -1.18729,1.178192 -1.20274,-1.193521 c -0.92269,-0.915622 -1.29971,-1.179751 -1.61921,-1.134381 -0.77284,0.109743 -0.58717,0.627861 0.70107,1.956433 l 1.23619,1.274889 -1.22247,1.213102 c -1.12916,1.12051 -1.40567,1.59424 -1.10564,1.894267 0.30021,0.300214 0.77419,0.02309 1.89876,-1.110164 z m -15.94743,-1.752143 v -0.788595 l -2.78045,-0.04836 c -2.95558,-0.05141 -3.26545,0.02037 -3.26545,0.756462 0,0.975237 -0.0216,0.968911 3.13091,0.917048 l 2.91499,-0.04796 z"
     id="path28"
     inkscape:label="Tab 3" /></svg>
